<svg width="36" height="48" viewBox="0 0 36 48" fill="none" xmlns="http://www.w3.org/2000/svg">
<path fill-rule="evenodd" clip-rule="evenodd" d="M23.7678 41.0164H12.2801C11.3627 41.0164 10.1952 40.9054 9.42376 40.0621C8.67319 39.2411 8.69404 38.2202 8.71489 37.5323V35.5572C3.46094 31.829 0 25.349 0 19.1797C0 13.3433 2.46019 7.88409 6.73424 4.22245C11.0083 0.560813 16.6166 -0.81507 22.0999 0.472045C27.3122 1.69259 31.8156 5.39862 34.1507 10.3918C38.6749 20.0896 34.3175 30.5863 27.3539 35.5794V37.2438C27.3747 37.8874 27.3956 39.0635 26.5408 39.9956C25.8944 40.6613 24.9771 41.0164 23.7678 41.0164ZM12.2592 37.6876C12.0716 37.6876 11.9256 37.6654 11.8214 37.6654C11.8214 37.6432 11.8214 37.6432 11.8005 37.6432V34.6474C11.8005 34.0704 11.5295 33.5378 11.05 33.2271C7.08867 30.675 3.08566 25.349 3.08566 19.1797C3.08566 14.3419 5.10801 9.83697 8.65235 6.7967C12.1967 3.75643 16.846 2.62465 21.3911 3.68985C25.686 4.68848 29.3971 7.72875 31.3152 11.8342C35.214 20.1561 31.1276 29.2326 24.9562 33.2049C24.4976 33.4934 24.2057 34.0482 24.2057 34.6252V37.4213V37.6432C24.1223 37.6654 23.9763 37.6876 23.7678 37.6876H12.2592Z" fill="#FF6002"/>
<path d="M11.8214 37.6654C11.9256 37.6654 12.0716 37.6876 12.2592 37.6876H23.7678C23.9763 37.6876 24.1223 37.6654 24.2057 37.6432V37.4213V34.6252C24.2057 34.0482 24.4976 33.4934 24.9562 33.2049C31.1276 29.2326 35.214 20.1561 31.3152 11.8342C29.3971 7.72875 25.686 4.68848 21.3911 3.68985C16.846 2.62465 12.1967 3.75643 8.65235 6.7967C5.10801 9.83697 3.08566 14.3419 3.08566 19.1797C3.08566 25.349 7.08867 30.675 11.05 33.2271C11.5295 33.5378 11.8005 34.0704 11.8005 34.6474V37.6432C11.8214 37.6432 11.8214 37.6432 11.8214 37.6654Z" fill="#FF6002"/>
<path d="M25.2902 47.6745C25.1442 47.6745 24.9983 47.6523 24.8523 47.6079C20.3489 46.232 15.6162 46.232 11.1127 47.6079C10.2788 47.852 9.42394 47.3416 9.17376 46.454C8.92357 45.5663 9.42394 44.6564 10.2579 44.3901C15.3035 42.8589 20.6617 42.8589 25.7071 44.3901C26.5411 44.6342 27.0206 45.5663 26.7913 46.454C26.6036 47.2085 25.9782 47.6745 25.2902 47.6745Z" fill="#FF6002"/>
</svg>
