<svg width="172" height="400" viewBox="0 0 172 400" fill="none" xmlns="http://www.w3.org/2000/svg">
<mask id="mask0_1_604" style="mask-type:luminance" maskUnits="userSpaceOnUse" x="-228" y="0" width="400" height="400">
<circle cx="-28" cy="200" r="200" fill="white"/>
</mask>
<g mask="url(#mask0_1_604)">
<path d="M-127.982 -207.501L-127.275 -208.207L-127.981 -208.915L-128.689 -208.208L-127.982 -207.501ZM-127.276 -206.793L-126.568 -207.5L-127.276 -206.793ZM-129.397 -206.087L-130.104 -206.795L-130.812 -206.088L-130.105 -205.381L-129.397 -206.087ZM-128.691 -205.38L-127.983 -206.086L-127.983 -206.086L-128.691 -205.38ZM395.275 319.294L395.983 318.587L395.275 319.294ZM395.982 320.001L395.274 320.708L395.981 321.415L396.689 320.709L395.982 320.001ZM397.397 318.588L398.104 319.295L398.811 318.589L398.105 317.881L397.397 318.588ZM396.69 317.88L395.983 318.587L396.69 317.88ZM-144.953 -190.53L-144.245 -191.237L-144.952 -191.944L-145.66 -191.238L-144.953 -190.53ZM-144.246 -189.822L-143.539 -190.529L-143.539 -190.529L-144.246 -189.822ZM-146.368 -189.117L-147.075 -189.824L-147.782 -189.118L-147.076 -188.41L-146.368 -189.117ZM-145.661 -188.409L-146.369 -187.702L-146.369 -187.702L-145.661 -188.409ZM378.305 336.264L377.597 336.971L378.305 336.264ZM379.011 336.972L378.304 337.678L379.01 338.386L379.718 337.679L379.011 336.972ZM380.426 335.558L381.133 336.266L381.841 335.559L381.134 334.852L380.426 335.558ZM379.72 334.851L380.427 334.144L379.72 334.851ZM-161.217 -172.852L-161.924 -172.145L-161.924 -172.145L-161.217 -172.852ZM-161.923 -173.559L-161.216 -174.266L-161.922 -174.974L-162.63 -174.267L-161.923 -173.559ZM362.749 351.821L363.457 351.115L362.749 351.821ZM363.456 352.529L364.163 353.237L364.87 352.53L364.164 351.822L363.456 352.529ZM362.041 353.942L361.333 354.649L362.04 355.356L362.747 354.65L362.041 353.942ZM361.334 353.235L362.042 352.528L361.334 353.235ZM-162.632 -171.439L-163.34 -170.732L-163.34 -170.732L-162.632 -171.439ZM-163.339 -172.146L-164.045 -172.854L-164.753 -172.147L-164.046 -171.439L-163.339 -172.146ZM-178.894 -156.589L-178.186 -157.295L-178.893 -158.003L-179.601 -157.296L-178.894 -156.589ZM-178.187 -155.881L-177.48 -156.588L-177.48 -156.588L-178.187 -155.881ZM-180.309 -155.176L-181.016 -155.883L-181.723 -155.177L-181.017 -154.469L-180.309 -155.176ZM-179.603 -154.468L-178.895 -155.175L-178.895 -155.175L-179.603 -154.468ZM344.364 370.205L343.656 370.912L344.364 370.205ZM345.07 370.913L344.363 371.619L345.069 372.327L345.777 371.62L345.07 370.913ZM346.485 369.5L347.192 370.207L347.9 369.501L347.193 368.793L346.485 369.5ZM345.779 368.792L345.071 369.499L345.779 368.792ZM-195.158 -138.911L-194.45 -139.617L-194.45 -139.617L-195.158 -138.911ZM-195.865 -139.618L-195.157 -140.325L-195.864 -141.032L-196.571 -140.326L-195.865 -139.618ZM328.808 385.763L328.101 386.469L328.808 385.763ZM329.515 386.47L330.221 387.178L330.929 386.471L330.222 385.763L329.515 386.47ZM328.1 387.883L327.392 388.59L328.099 389.298L328.806 388.591L328.1 387.883ZM327.393 387.176L326.685 387.882L327.393 387.176ZM-196.573 -137.497L-195.866 -138.204L-195.866 -138.204L-196.573 -137.497ZM-197.28 -138.205L-197.986 -138.913L-198.694 -138.206L-197.987 -137.498L-197.28 -138.205ZM-212.835 -122.648L-212.128 -123.354L-212.834 -124.062L-213.542 -123.355L-212.835 -122.648ZM-212.129 -121.94L-211.421 -122.647L-211.421 -122.647L-212.129 -121.94ZM-214.25 -121.234L-214.957 -121.942L-215.665 -121.235L-214.958 -120.528L-214.25 -121.234ZM-213.544 -120.527L-212.836 -121.233L-212.836 -121.233L-213.544 -120.527ZM310.422 404.146L309.715 404.853L310.422 404.146ZM311.129 404.854L310.421 405.561L311.128 406.268L311.836 405.562L311.129 404.854ZM312.544 403.441L313.251 404.148L313.958 403.442L313.252 402.734L312.544 403.441ZM311.838 402.733L311.13 403.44L311.838 402.733ZM-229.099 -104.97L-228.391 -105.676L-228.391 -105.676L-229.099 -104.97ZM-229.806 -105.677L-229.098 -106.384L-229.805 -107.091L-230.512 -106.385L-229.806 -105.677ZM294.867 419.704L294.159 420.41L294.867 419.704ZM295.574 420.411L296.28 421.119L296.988 420.412L296.281 419.705L295.574 420.411ZM294.159 421.825L293.451 422.531L294.158 423.239L294.865 422.532L294.159 421.825ZM293.452 421.117L292.744 421.824L293.452 421.117ZM-230.514 -103.556L-229.807 -104.263L-229.807 -104.263L-230.514 -103.556ZM-231.221 -104.264L-231.927 -104.971L-232.635 -104.265L-231.928 -103.557L-231.221 -104.264ZM-246.776 -88.7066L-246.069 -89.4132L-246.775 -90.1208L-247.483 -89.4142L-246.776 -88.7066ZM-246.07 -87.999L-245.362 -88.7056L-245.362 -88.7056L-246.07 -87.999ZM-248.191 -87.2933L-248.898 -88.0009L-249.606 -87.2943L-248.899 -86.5867L-248.191 -87.2933ZM-247.485 -86.5857L-246.777 -87.2924L-246.777 -87.2924L-247.485 -86.5857ZM276.481 438.087L275.774 438.794L276.481 438.087ZM277.188 438.795L276.48 439.502L277.187 440.209L277.895 439.503L277.188 438.795ZM278.603 437.382L279.31 438.089L280.017 437.383L279.311 436.675L278.603 437.382ZM277.896 436.674L277.189 437.381L277.896 436.674ZM-263.04 -71.0284L-262.333 -71.7351L-262.333 -71.7351L-263.04 -71.0284ZM-263.747 -71.736L-263.039 -72.4426L-263.746 -73.1502L-264.453 -72.4436L-263.747 -71.736ZM260.926 453.645L260.218 454.351L260.926 453.645ZM261.633 454.352L262.339 455.06L263.047 454.353L262.34 453.646L261.633 454.352ZM260.217 455.766L259.51 456.472L260.216 457.18L260.924 456.473L260.217 455.766ZM259.511 455.058L258.803 455.765L259.511 455.058ZM-264.455 -69.6152L-263.748 -70.3218L-263.748 -70.3218L-264.455 -69.6152ZM-265.162 -70.3228L-265.869 -71.0303L-266.576 -70.3237L-265.87 -69.6161L-265.162 -70.3228ZM-280.717 -54.7654L-280.01 -55.4721L-280.716 -56.1797L-281.424 -55.473L-280.717 -54.7654ZM-280.011 -54.0579L-279.303 -54.7645L-279.303 -54.7645L-280.011 -54.0579ZM-282.133 -53.3522L-282.839 -54.0598L-283.547 -53.3531L-282.84 -52.6456L-282.133 -53.3522ZM-281.426 -52.6446L-280.718 -53.3512L-280.718 -53.3512L-281.426 -52.6446ZM242.54 472.029L241.833 472.735L242.54 472.029ZM243.247 472.736L242.539 473.443L243.246 474.15L243.953 473.444L243.247 472.736ZM244.662 471.323L245.369 472.031L246.076 471.324L245.37 470.616L244.662 471.323ZM243.955 470.615L243.248 471.322L243.955 470.615ZM-296.981 -37.0873L-296.274 -37.7939L-296.274 -37.7939L-296.981 -37.0873ZM-297.688 -37.7949L-296.98 -38.5015L-297.687 -39.2091L-298.395 -38.5025L-297.688 -37.7949ZM226.985 487.586L226.277 488.293L226.985 487.586ZM227.691 488.293L228.398 489.001L229.106 488.294L228.399 487.587L227.691 488.293ZM226.276 489.707L225.569 490.413L226.275 491.121L226.983 490.414L226.276 489.707ZM225.57 488.999L224.862 489.706L225.57 488.999ZM-298.396 -35.674L-297.689 -36.3807L-297.689 -36.3807L-298.396 -35.674ZM-299.103 -36.3816L-299.81 -37.0892L-300.517 -36.3826L-299.811 -35.675L-299.103 -36.3816ZM-314.659 -20.8243L-313.951 -21.531L-314.658 -22.2385L-315.365 -21.5319L-314.659 -20.8243ZM-313.952 -20.1167L-313.244 -20.8234L-313.244 -20.8234L-313.952 -20.1167ZM-316.074 -19.4111L-316.78 -20.1186L-317.488 -19.412L-316.781 -18.7044L-316.074 -19.4111ZM-315.367 -18.7035L-314.659 -19.4101L-314.659 -19.4101L-315.367 -18.7035ZM208.599 505.97L207.891 506.676L208.599 505.97ZM209.306 506.677L208.598 507.384L209.305 508.092L210.012 507.385L209.306 506.677ZM210.721 505.264L211.427 505.972L212.135 505.265L211.428 504.557L210.721 505.264ZM210.014 504.556L209.307 505.263L210.014 504.556ZM-330.922 -3.14618L-330.215 -3.85281L-330.215 -3.85281L-330.922 -3.14618ZM-331.629 -3.85376L-330.921 -4.56039L-331.628 -5.26797L-332.336 -4.56134L-331.629 -3.85376ZM193.044 521.527L192.336 522.234L193.044 521.527ZM193.75 522.235L194.457 522.942L195.165 522.236L194.458 521.528L193.75 522.235ZM192.335 523.648L191.628 524.355L192.334 525.062L193.042 524.355L192.335 523.648ZM191.629 522.94L190.921 523.647L191.629 522.94ZM-332.338 -1.73292L-331.63 -2.43955L-331.63 -2.43955L-332.338 -1.73292ZM-333.044 -2.4405L-333.751 -3.14808L-334.458 -2.44145L-333.752 -1.73387L-333.044 -2.4405ZM-348.6 13.1168L-347.892 12.4102L-348.599 11.7026L-349.306 12.4092L-348.6 13.1168ZM-347.893 13.8244L-347.185 13.1178L-347.185 13.1178L-347.893 13.8244ZM-350.015 14.5301L-350.721 13.8225L-351.429 14.5291L-350.722 15.2367L-350.015 14.5301ZM-349.308 15.2376L-348.601 14.531L-348.601 14.531L-349.308 15.2376ZM174.658 539.911L173.95 540.617L174.658 539.911ZM175.365 540.618L174.657 541.325L175.364 542.033L176.071 541.326L175.365 540.618ZM176.78 539.205L177.486 539.913L178.194 539.206L177.487 538.499L176.78 539.205ZM176.073 538.498L175.366 539.204L176.073 538.498ZM-364.864 30.7949L-364.156 30.0883L-364.156 30.0883L-364.864 30.7949ZM-365.57 30.0874L-364.863 29.3807L-365.569 28.6732L-366.277 29.3798L-365.57 30.0874ZM159.103 555.468L158.395 556.175L159.103 555.468ZM159.809 556.176L160.516 556.883L161.223 556.177L160.517 555.469L159.809 556.176ZM158.394 557.589L157.686 558.296L158.393 559.003L159.101 558.297L158.394 557.589ZM157.687 556.881L156.98 557.588L157.687 556.881ZM-366.279 32.2082L-365.571 31.5016L-365.571 31.5016L-366.279 32.2082ZM-366.985 31.5006L-367.692 30.793L-368.4 31.4997L-367.693 32.2073L-366.985 31.5006ZM-382.541 47.0579L-381.833 46.3513L-382.54 45.6437L-383.247 46.3503L-382.541 47.0579ZM-381.834 47.7655L-381.127 47.0589L-381.127 47.0589L-381.834 47.7655ZM-383.956 48.4712L-384.663 47.7636L-385.37 48.4702L-384.664 49.1778L-383.956 48.4712ZM-383.249 49.1788L-382.542 48.4721L-382.542 48.4721L-383.249 49.1788ZM140.717 573.852L140.009 574.559L140.717 573.852ZM141.423 574.56L140.716 575.266L141.423 575.974L142.13 575.267L141.423 574.56ZM142.839 573.146L143.545 573.854L144.253 573.147L143.546 572.44L142.839 573.146ZM142.132 572.439L141.424 573.145L142.132 572.439ZM-398.805 64.7361L-398.097 64.0294L-398.097 64.0294L-398.805 64.7361ZM-399.511 64.0285L-398.804 63.3219L-399.51 62.6143L-400.218 63.3209L-399.511 64.0285ZM125.161 589.409L124.454 590.116L125.161 589.409ZM125.868 590.117L126.575 590.824L127.282 590.118L126.576 589.41L125.868 590.117ZM124.453 591.53L123.745 592.237L124.452 592.944L125.16 592.238L124.453 591.53ZM123.746 590.823L123.039 591.529L123.746 590.823ZM-400.22 66.1493L-399.512 65.4427L-399.512 65.4427L-400.22 66.1493ZM-400.926 65.4417L-401.633 64.7342L-402.341 65.4408L-401.634 66.1484L-400.926 65.4417ZM-416.482 80.9991L-415.774 80.2924L-416.481 79.5848L-417.189 80.2915L-416.482 80.9991ZM-415.775 81.7066L-415.068 81L-415.068 81L-415.775 81.7066ZM-417.897 82.4123L-418.604 81.7047L-419.311 82.4114L-418.605 83.1189L-417.897 82.4123ZM-417.19 83.1199L-416.483 82.4133L-416.483 82.4133L-417.19 83.1199ZM106.776 607.793L106.068 608.5L106.776 607.793ZM107.482 608.501L106.775 609.207L107.481 609.915L108.189 609.208L107.482 608.501ZM108.897 607.087L109.604 607.795L110.312 607.088L109.605 606.381L108.897 607.087ZM108.191 606.38L107.483 607.086L108.191 606.38ZM-128.69 -206.794L-127.983 -206.086L-126.568 -207.5L-127.275 -208.207L-128.69 -206.794ZM-128.691 -205.38L-127.276 -206.793L-128.689 -208.208L-130.104 -206.795L-128.691 -205.38ZM-127.983 -206.086L-128.69 -206.794L-130.105 -205.381L-129.398 -204.673L-127.983 -206.086ZM395.983 318.587L-127.983 -206.086L-129.398 -204.673L394.568 320L395.983 318.587ZM396.689 319.295L395.983 318.587L394.568 320L395.274 320.708L396.689 319.295ZM396.69 317.88L395.275 319.294L396.689 320.709L398.104 319.295L396.69 317.88ZM395.983 318.587L396.689 319.295L398.105 317.881L397.398 317.174L395.983 318.587ZM-127.983 -206.086L395.983 318.587L397.398 317.174L-126.568 -207.5L-127.983 -206.086ZM-145.66 -189.823L-144.954 -189.116L-143.539 -190.529L-144.245 -191.237L-145.66 -189.823ZM-145.661 -188.409L-144.246 -189.822L-145.66 -191.238L-147.075 -189.824L-145.661 -188.409ZM-144.954 -189.116L-145.66 -189.823L-147.076 -188.41L-146.369 -187.702L-144.954 -189.116ZM379.012 335.557L-144.954 -189.116L-146.369 -187.702L377.597 336.971L379.012 335.557ZM379.719 336.265L379.012 335.557L377.597 336.971L378.304 337.678L379.719 336.265ZM379.72 334.851L378.305 336.264L379.718 337.679L381.133 336.266L379.72 334.851ZM379.012 335.557L379.719 336.265L381.134 334.852L380.427 334.144L379.012 335.557ZM-144.954 -189.116L379.012 335.557L380.427 334.144L-143.539 -190.529L-144.954 -189.116ZM-160.509 -173.558L-161.216 -174.266L-162.631 -172.853L-161.924 -172.145L-160.509 -173.558ZM363.457 351.115L-160.509 -173.558L-161.924 -172.145L362.042 352.528L363.457 351.115ZM364.164 351.822L363.457 351.115L362.042 352.528L362.748 353.236L364.164 351.822ZM362.747 354.65L364.163 353.237L362.749 351.821L361.334 353.235L362.747 354.65ZM360.627 353.941L361.333 354.649L362.748 353.236L362.042 352.528L360.627 353.941ZM-163.34 -170.732L360.627 353.941L362.042 352.528L-161.924 -172.145L-163.34 -170.732ZM-164.046 -171.439L-163.34 -170.732L-161.924 -172.145L-162.631 -172.853L-164.046 -171.439ZM-162.63 -174.267L-164.045 -172.854L-162.632 -171.439L-161.217 -172.852L-162.63 -174.267ZM-179.602 -155.882L-178.895 -155.175L-177.48 -156.588L-178.186 -157.295L-179.602 -155.882ZM-179.603 -154.468L-178.187 -155.881L-179.601 -157.296L-181.016 -155.883L-179.603 -154.468ZM-178.895 -155.175L-179.602 -155.882L-181.017 -154.469L-180.31 -153.761L-178.895 -155.175ZM345.071 369.499L-178.895 -155.175L-180.31 -153.761L343.656 370.912L345.071 369.499ZM345.778 370.206L345.071 369.499L343.656 370.912L344.363 371.619L345.778 370.206ZM345.779 368.792L344.364 370.205L345.777 371.62L347.192 370.207L345.779 368.792ZM345.071 369.499L345.778 370.206L347.193 368.793L346.486 368.085L345.071 369.499ZM-178.895 -155.175L345.071 369.499L346.486 368.085L-177.48 -156.588L-178.895 -155.175ZM-194.45 -139.617L-195.157 -140.325L-196.572 -138.912L-195.866 -138.204L-194.45 -139.617ZM329.516 385.056L-194.45 -139.617L-195.866 -138.204L328.101 386.469L329.516 385.056ZM330.222 385.763L329.516 385.056L328.101 386.469L328.807 387.177L330.222 385.763ZM328.806 388.591L330.221 387.178L328.808 385.763L327.393 387.176L328.806 388.591ZM326.685 387.882L327.392 388.59L328.807 387.177L328.101 386.469L326.685 387.882ZM-197.281 -136.791L326.685 387.882L328.101 386.469L-195.866 -138.204L-197.281 -136.791ZM-197.987 -137.498L-197.281 -136.791L-195.866 -138.204L-196.572 -138.912L-197.987 -137.498ZM-196.571 -140.326L-197.986 -138.913L-196.573 -137.497L-195.158 -138.911L-196.571 -140.326ZM-213.543 -121.941L-212.836 -121.233L-211.421 -122.647L-212.128 -123.354L-213.543 -121.941ZM-213.544 -120.527L-212.129 -121.94L-213.542 -123.355L-214.957 -121.942L-213.544 -120.527ZM-212.836 -121.233L-213.543 -121.941L-214.958 -120.528L-214.251 -119.82L-212.836 -121.233ZM311.13 403.44L-212.836 -121.233L-214.251 -119.82L309.715 404.853L311.13 403.44ZM311.837 404.147L311.13 403.44L309.715 404.853L310.421 405.561L311.837 404.147ZM311.838 402.733L310.422 404.146L311.836 405.562L313.251 404.148L311.838 402.733ZM311.13 403.44L311.837 404.147L313.252 402.734L312.545 402.026L311.13 403.44ZM-212.836 -121.233L311.13 403.44L312.545 402.026L-211.421 -122.647L-212.836 -121.233ZM-228.391 -105.676L-229.098 -106.384L-230.513 -104.971L-229.807 -104.263L-228.391 -105.676ZM295.575 418.997L-228.391 -105.676L-229.807 -104.263L294.159 420.41L295.575 418.997ZM296.281 419.705L295.575 418.997L294.159 420.41L294.866 421.118L296.281 419.705ZM294.865 422.532L296.28 421.119L294.867 419.704L293.452 421.117L294.865 422.532ZM292.744 421.824L293.451 422.531L294.866 421.118L294.159 420.41L292.744 421.824ZM-231.222 -102.85L292.744 421.824L294.159 420.41L-229.807 -104.263L-231.222 -102.85ZM-231.928 -103.557L-231.222 -102.85L-229.807 -104.263L-230.513 -104.971L-231.928 -103.557ZM-230.512 -106.385L-231.927 -104.971L-230.514 -103.556L-229.099 -104.97L-230.512 -106.385ZM-247.484 -87.9999L-246.777 -87.2924L-245.362 -88.7056L-246.069 -89.4132L-247.484 -87.9999ZM-247.485 -86.5857L-246.07 -87.999L-247.483 -89.4142L-248.898 -88.0009L-247.485 -86.5857ZM-246.777 -87.2924L-247.484 -87.9999L-248.899 -86.5867L-248.192 -85.8791L-246.777 -87.2924ZM277.189 437.381L-246.777 -87.2924L-248.192 -85.8791L275.774 438.794L277.189 437.381ZM277.896 438.088L277.189 437.381L275.774 438.794L276.48 439.502L277.896 438.088ZM277.896 436.674L276.481 438.087L277.895 439.503L279.31 438.089L277.896 436.674ZM277.189 437.381L277.896 438.088L279.311 436.675L278.604 435.968L277.189 437.381ZM-246.777 -87.2924L277.189 437.381L278.604 435.968L-245.362 -88.7056L-246.777 -87.2924ZM-262.333 -71.7351L-263.039 -72.4426L-264.454 -71.0294L-263.748 -70.3218L-262.333 -71.7351ZM261.634 452.938L-262.333 -71.7351L-263.748 -70.3218L260.218 454.351L261.634 452.938ZM262.34 453.646L261.634 452.938L260.218 454.351L260.925 455.059L262.34 453.646ZM260.924 456.473L262.339 455.06L260.926 453.645L259.511 455.058L260.924 456.473ZM258.803 455.765L259.51 456.472L260.925 455.059L260.218 454.351L258.803 455.765ZM-265.163 -68.9085L258.803 455.765L260.218 454.351L-263.748 -70.3218L-265.163 -68.9085ZM-265.87 -69.6161L-265.163 -68.9085L-263.748 -70.3218L-264.454 -71.0294L-265.87 -69.6161ZM-264.453 -72.4436L-265.869 -71.0303L-264.455 -69.6152L-263.04 -71.0284L-264.453 -72.4436ZM-281.425 -54.0588L-280.718 -53.3512L-279.303 -54.7645L-280.01 -55.4721L-281.425 -54.0588ZM-281.426 -52.6446L-280.011 -54.0579L-281.424 -55.473L-282.839 -54.0598L-281.426 -52.6446ZM-280.718 -53.3512L-281.425 -54.0588L-282.84 -52.6456L-282.134 -51.938L-280.718 -53.3512ZM243.248 471.322L-280.718 -53.3512L-282.134 -51.938L241.833 472.735L243.248 471.322ZM243.954 472.03L243.248 471.322L241.833 472.735L242.539 473.443L243.954 472.03ZM243.955 470.615L242.54 472.029L243.953 473.444L245.369 472.031L243.955 470.615ZM243.248 471.322L243.954 472.03L245.37 470.616L244.663 469.909L243.248 471.322ZM-280.718 -53.3512L243.248 471.322L244.663 469.909L-279.303 -54.7645L-280.718 -53.3512ZM-296.274 -37.7939L-296.98 -38.5015L-298.396 -37.0883L-297.689 -36.3807L-296.274 -37.7939ZM227.692 486.879L-296.274 -37.7939L-297.689 -36.3807L226.277 488.293L227.692 486.879ZM228.399 487.587L227.692 486.879L226.277 488.293L226.984 489L228.399 487.587ZM226.983 490.414L228.398 489.001L226.985 487.586L225.57 488.999L226.983 490.414ZM224.862 489.706L225.569 490.413L226.984 489L226.277 488.293L224.862 489.706ZM-299.104 -34.9674L224.862 489.706L226.277 488.293L-297.689 -36.3807L-299.104 -34.9674ZM-299.811 -35.675L-299.104 -34.9674L-297.689 -36.3807L-298.396 -37.0883L-299.811 -35.675ZM-298.395 -38.5025L-299.81 -37.0892L-298.396 -35.674L-296.981 -37.0873L-298.395 -38.5025ZM-315.366 -20.1177L-314.659 -19.4101L-313.244 -20.8234L-313.951 -21.531L-315.366 -20.1177ZM-315.367 -18.7035L-313.952 -20.1167L-315.365 -21.5319L-316.78 -20.1186L-315.367 -18.7035ZM-314.659 -19.4101L-315.366 -20.1177L-316.781 -18.7044L-316.075 -17.9969L-314.659 -19.4101ZM209.307 505.263L-314.659 -19.4101L-316.075 -17.9969L207.891 506.676L209.307 505.263ZM210.013 505.971L209.307 505.263L207.891 506.676L208.598 507.384L210.013 505.971ZM210.014 504.556L208.599 505.97L210.012 507.385L211.427 505.972L210.014 504.556ZM209.307 505.263L210.013 505.971L211.428 504.557L210.722 503.85L209.307 505.263ZM-314.659 -19.4101L209.307 505.263L210.722 503.85L-313.244 -20.8234L-314.659 -19.4101ZM-330.215 -3.85281L-330.921 -4.56039L-332.337 -3.14713L-331.63 -2.43955L-330.215 -3.85281ZM193.751 520.82L-330.215 -3.85281L-331.63 -2.43955L192.336 522.234L193.751 520.82ZM194.458 521.528L193.751 520.82L192.336 522.234L193.043 522.941L194.458 521.528ZM193.042 524.355L194.457 522.942L193.044 521.527L191.629 522.94L193.042 524.355ZM190.921 523.647L191.628 524.355L193.043 522.941L192.336 522.234L190.921 523.647ZM-333.045 -1.02629L190.921 523.647L192.336 522.234L-331.63 -2.43955L-333.045 -1.02629ZM-333.752 -1.73387L-333.045 -1.02629L-331.63 -2.43955L-332.337 -3.14713L-333.752 -1.73387ZM-332.336 -4.56134L-333.751 -3.14808L-332.338 -1.73292L-330.922 -3.14618L-332.336 -4.56134ZM-349.307 13.8234L-348.601 14.531L-347.185 13.1178L-347.892 12.4102L-349.307 13.8234ZM-349.308 15.2376L-347.893 13.8244L-349.306 12.4092L-350.721 13.8225L-349.308 15.2376ZM-348.601 14.531L-349.307 13.8234L-350.722 15.2367L-350.016 15.9443L-348.601 14.531ZM175.366 539.204L-348.601 14.531L-350.016 15.9443L173.95 540.617L175.366 539.204ZM176.072 539.912L175.366 539.204L173.95 540.617L174.657 541.325L176.072 539.912ZM176.073 538.498L174.658 539.911L176.071 541.326L177.486 539.913L176.073 538.498ZM175.366 539.204L176.072 539.912L177.487 538.499L176.781 537.791L175.366 539.204ZM-348.601 14.531L175.366 539.204L176.781 537.791L-347.185 13.1178L-348.601 14.531ZM-364.156 30.0883L-364.863 29.3807L-366.278 30.794L-365.571 31.5016L-364.156 30.0883ZM159.81 554.762L-364.156 30.0883L-365.571 31.5016L158.395 556.175L159.81 554.762ZM160.517 555.469L159.81 554.762L158.395 556.175L159.102 556.882L160.517 555.469ZM159.101 558.297L160.516 556.883L159.103 555.468L157.687 556.881L159.101 558.297ZM156.98 557.588L157.686 558.296L159.102 556.882L158.395 556.175L156.98 557.588ZM-366.986 32.9148L156.98 557.588L158.395 556.175L-365.571 31.5016L-366.986 32.9148ZM-367.693 32.2073L-366.986 32.9148L-365.571 31.5016L-366.278 30.794L-367.693 32.2073ZM-366.277 29.3798L-367.692 30.793L-366.279 32.2082L-364.864 30.7949L-366.277 29.3798ZM-383.248 47.7646L-382.542 48.4721L-381.127 47.0589L-381.833 46.3513L-383.248 47.7646ZM-383.249 49.1788L-381.834 47.7655L-383.247 46.3503L-384.663 47.7636L-383.249 49.1788ZM-382.542 48.4721L-383.248 47.7646L-384.664 49.1778L-383.957 49.8854L-382.542 48.4721ZM141.424 573.145L-382.542 48.4721L-383.957 49.8854L140.009 574.559L141.424 573.145ZM142.131 573.853L141.424 573.145L140.009 574.559L140.716 575.266L142.131 573.853ZM142.132 572.439L140.717 573.852L142.13 575.267L143.545 573.854L142.132 572.439ZM141.424 573.145L142.131 573.853L143.546 572.44L142.84 571.732L141.424 573.145ZM-382.542 48.4721L141.424 573.145L142.84 571.732L-381.127 47.0589L-382.542 48.4721ZM-398.097 64.0294L-398.804 63.3219L-400.219 64.7351L-399.512 65.4427L-398.097 64.0294ZM125.869 588.703L-398.097 64.0294L-399.512 65.4427L124.454 590.116L125.869 588.703ZM126.576 589.41L125.869 588.703L124.454 590.116L125.16 590.824L126.576 589.41ZM125.16 592.238L126.575 590.824L125.161 589.409L123.746 590.823L125.16 592.238ZM123.039 591.529L123.745 592.237L125.16 590.824L124.454 590.116L123.039 591.529ZM-400.927 66.856L123.039 591.529L124.454 590.116L-399.512 65.4427L-400.927 66.856ZM-401.634 66.1484L-400.927 66.856L-399.512 65.4427L-400.219 64.7351L-401.634 66.1484ZM-400.218 63.3209L-401.633 64.7342L-400.22 66.1493L-398.805 64.7361L-400.218 63.3209ZM-417.189 81.7057L-416.483 82.4133L-415.068 81L-415.774 80.2924L-417.189 81.7057ZM-417.19 83.1199L-415.775 81.7066L-417.189 80.2915L-418.604 81.7047L-417.19 83.1199ZM-416.483 82.4133L-417.189 81.7057L-418.605 83.1189L-417.898 83.8265L-416.483 82.4133ZM107.483 607.086L-416.483 82.4133L-417.898 83.8265L106.068 608.5L107.483 607.086ZM108.19 607.794L107.483 607.086L106.068 608.5L106.775 609.207L108.19 607.794ZM108.191 606.38L106.776 607.793L108.189 609.208L109.604 607.795L108.191 606.38ZM107.483 607.086L108.19 607.794L109.605 606.381L108.898 605.673L107.483 607.086ZM-416.483 82.4133L107.483 607.086L108.898 605.673L-415.068 81L-416.483 82.4133Z" fill="#F5F5F5"/>
</g>
</svg>
