<svg width="34" height="34" viewBox="0 0 34 34" fill="none" xmlns="http://www.w3.org/2000/svg">
<circle cx="17" cy="17" r="17" fill="#FF6002"/>
<path d="M17 19.625C16.548 19.625 16.096 19.4767 15.7105 19.1763L10 14.7359V20.9375C10 21.6621 10.5876 22.25 11.3125 22.25H22.6875C23.4124 22.25 24 21.6624 24 20.9375V14.7359L18.2906 19.1793C17.9051 19.4773 17.4512 19.625 17 19.625ZM10.4454 13.973L16.2478 18.4875C16.6905 18.832 17.3106 18.832 17.7533 18.4875L23.5557 13.973C23.8113 13.7543 24 13.418 24 13.0625C24 12.3376 23.4121 11.75 22.6875 11.75H11.3125C10.5876 11.75 10 12.3376 10 13.0625C10 13.418 10.1643 13.7543 10.4454 13.973Z" fill="white"/>
</svg>
