<svg width="16" height="14" viewBox="0 0 16 14" fill="none" xmlns="http://www.w3.org/2000/svg">
<path d="M0 4.96575V4.7845C0 2.60012 1.57875 0.736998 3.73125 0.378248C5.12813 0.14106 6.60625 0.605435 7.625 1.62575L8 2.00012L8.34688 1.62575C9.39375 0.605435 10.8438 0.14106 12.2688 0.378248C14.4219 0.736998 16 2.60012 16 4.7845V4.96575C16 6.26262 15.4625 7.50325 14.5125 8.38762L8.86563 13.6595C8.63125 13.8782 8.32187 14.0001 8 14.0001C7.67812 14.0001 7.36875 13.8782 7.13438 13.6595L1.48719 8.38762C0.538437 7.50325 9.375e-06 6.26262 9.375e-06 4.96575H0Z" fill="white"/>
</svg>
