<svg width="94" height="96" viewBox="0 0 94 96" fill="none" xmlns="http://www.w3.org/2000/svg">
<ellipse cx="47" cy="48.0058" rx="47" ry="47.8981" fill="#FF6002"/>
<g clip-path="url(#clip0_1_101)">
<path d="M62.0134 24.2049C60.7141 22.9587 59.0514 22.3604 57.3756 22.3604C55.4892 22.3604 53.5842 23.1183 52.1638 24.5678C51.8292 24.9088 51.2788 24.9074 50.9447 24.5659C49.5243 23.1183 47.6193 22.3604 45.7328 22.3604C44.0571 22.3604 42.3944 22.9587 41.0951 24.2049C38.2375 26.9461 38.1872 31.5319 40.9423 34.3396L50.1267 43.6996C50.9107 44.4985 52.1978 44.4985 52.9818 43.6996L62.1662 34.3396C64.9213 31.5319 64.8709 26.9461 62.0134 24.2049Z" fill="white"/>
<path d="M72.4296 50.6615C70.7986 49.535 68.8767 49.8541 67.1749 50.8552C65.7194 51.7114 58.3622 58.0625 56.2622 59.8837C55.8973 60.2001 55.4357 60.3707 54.9528 60.3708L46.0833 60.3725C45.6359 60.3725 45.1513 59.8596 45.1513 59.4056C45.1513 58.8718 45.6079 58.4558 46.0833 58.4558H51.968C54.0278 58.4558 56.3336 57.088 56.3336 54.6564C56.3336 52.0729 54.0278 50.8571 51.968 50.8571C48.7412 50.8571 47.8613 50.8695 47.721 50.8719C47.7064 50.8722 47.6921 50.8723 47.6775 50.8723C46.253 50.8714 44.81 50.7818 43.6973 50.1751C42.2061 49.3963 40.4874 48.9556 38.6532 48.9556C35.5738 48.9556 32.8169 50.2074 30.9268 52.1812L22.2851 60.8523C21.5115 61.6285 21.5066 62.8827 22.2741 63.6649L30.6456 72.1963C31.4296 72.9953 32.7167 72.9953 33.5007 72.1963L35.2132 70.4511C35.5893 70.0678 36.1038 69.8518 36.6408 69.8518H54.6784C56.5573 69.8518 58.371 69.1489 59.7746 67.8781L72.5564 53.2659C73.3374 52.5592 73.2927 51.2599 72.4296 50.6615Z" fill="white"/>
</g>
<defs>
<clipPath id="clip0_1_101">
<rect x="20.8889" y="21.3958" width="52.2222" height="53.2201" fill="white"/>
</clipPath>
</defs>
</svg>
