<svg width="13" height="12" viewBox="0 0 13 12" fill="none" xmlns="http://www.w3.org/2000/svg">
<path d="M6.50145 2.92335C4.65694 2.92335 3.16916 4.297 3.16916 6C3.16916 7.703 4.65694 9.07665 6.50145 9.07665C8.34596 9.07665 9.83374 7.703 9.83374 6C9.83374 4.297 8.34596 2.92335 6.50145 2.92335ZM6.50145 8.00022C5.30948 8.00022 4.33502 7.1032 4.33502 6C4.33502 4.8968 5.30658 3.99978 6.50145 3.99978C7.69632 3.99978 8.66788 4.8968 8.66788 6C8.66788 7.1032 7.69342 8.00022 6.50145 8.00022ZM10.7473 2.7975C10.7473 3.19647 10.3993 3.51512 9.97005 3.51512C9.53793 3.51512 9.19281 3.1938 9.19281 2.7975C9.19281 2.40121 9.54083 2.07988 9.97005 2.07988C10.3993 2.07988 10.7473 2.40121 10.7473 2.7975ZM12.9543 3.52583C12.905 2.56454 12.6672 1.71304 11.9045 1.01149C11.1446 0.309941 10.2224 0.0903715 9.1812 0.0421734C8.10814 -0.0140578 4.89186 -0.0140578 3.8188 0.0421734C2.78054 0.0876939 1.85828 0.307263 1.09554 1.00881C0.332794 1.71036 0.0978806 2.56187 0.0456776 3.52315C-0.0152259 4.51389 -0.0152259 7.48343 0.0456776 8.47417C0.0949805 9.43546 0.332794 10.287 1.09554 10.9885C1.85828 11.6901 2.77764 11.9096 3.8188 11.9578C4.89186 12.0141 8.10814 12.0141 9.1812 11.9578C10.2224 11.9123 11.1446 11.6927 11.9045 10.9885C12.6643 10.287 12.9021 9.43546 12.9543 8.47417C13.0152 7.48343 13.0152 4.51657 12.9543 3.52583ZM11.568 9.53721C11.3418 10.062 10.9039 10.4664 10.3326 10.6779C9.47702 10.9912 7.4469 10.9189 6.50145 10.9189C5.556 10.9189 3.52298 10.9885 2.67033 10.6779C2.1019 10.469 1.66397 10.0647 1.43486 9.53721C1.09554 8.74729 1.17384 6.87292 1.17384 6C1.17384 5.12708 1.09844 3.25003 1.43486 2.46279C1.66107 1.93797 2.099 1.53364 2.67033 1.3221C3.52588 1.00881 5.556 1.08111 6.50145 1.08111C7.4469 1.08111 9.47992 1.01149 10.3326 1.3221C10.901 1.53096 11.3389 1.93529 11.568 2.46279C11.9074 3.25271 11.8291 5.12708 11.8291 6C11.8291 6.87292 11.9074 8.74997 11.568 9.53721Z" fill="white"/>
</svg>
