<svg width="21" height="20" viewBox="0 0 21 20" fill="none" xmlns="http://www.w3.org/2000/svg">
<g clip-path="url(#clip0_1_519)">
<path d="M10.6692 4.87225C7.83152 4.87225 5.54262 7.16166 5.54262 10C5.54262 12.8383 7.83152 15.1277 10.6692 15.1277C13.5069 15.1277 15.7958 12.8383 15.7958 10C15.7958 7.16166 13.5069 4.87225 10.6692 4.87225ZM10.6692 13.3337C8.83543 13.3337 7.33626 11.8387 7.33626 10C7.33626 8.16133 8.83096 6.6663 10.6692 6.6663C12.5075 6.6663 14.0022 8.16133 14.0022 10C14.0022 11.8387 12.503 13.3337 10.6692 13.3337ZM17.2013 4.6625C17.2013 5.32746 16.6659 5.85853 16.0055 5.85853C15.3407 5.85853 14.8098 5.32299 14.8098 4.6625C14.8098 4.00201 15.3452 3.46647 16.0055 3.46647C16.6659 3.46647 17.2013 4.00201 17.2013 4.6625ZM20.5967 5.87638C20.5209 4.27424 20.155 2.85507 18.9815 1.68582C17.8126 0.516568 16.3937 0.150619 14.7919 0.070289C13.1411 -0.0234297 8.19293 -0.0234297 6.54206 0.070289C4.94474 0.146156 3.52589 0.512105 2.35244 1.68136C1.17898 2.85061 0.817578 4.26978 0.737265 5.87192C0.643568 7.52315 0.643568 12.4724 0.737265 14.1236C0.813116 15.7258 1.17898 17.1449 2.35244 18.3142C3.52589 19.4834 4.94028 19.8494 6.54206 19.9297C8.19293 20.0234 13.1411 20.0234 14.7919 19.9297C16.3937 19.8538 17.8126 19.4879 18.9815 18.3142C20.1505 17.1449 20.5164 15.7258 20.5967 14.1236C20.6904 12.4724 20.6904 7.52761 20.5967 5.87638ZM18.464 15.8953C18.116 16.7701 17.4422 17.4439 16.5633 17.7965C15.247 18.3186 12.1238 18.1981 10.6692 18.1981C9.21468 18.1981 6.08696 18.3142 4.77519 17.7965C3.90068 17.4484 3.22695 16.7745 2.87447 15.8953C2.35244 14.5788 2.4729 11.4549 2.4729 10C2.4729 8.54513 2.3569 5.41671 2.87447 4.10465C3.22249 3.22995 3.89622 2.55606 4.77519 2.2035C6.09142 1.68136 9.21468 1.80185 10.6692 1.80185C12.1238 1.80185 15.2515 1.68582 16.5633 2.2035C17.4378 2.5516 18.1115 3.22548 18.464 4.10465C18.986 5.42118 18.8655 8.54513 18.8655 10C18.8655 11.4549 18.986 14.5833 18.464 15.8953Z" fill="#FF6002"/>
</g>
<defs>
<clipPath id="clip0_1_519">
<rect width="20" height="20" fill="white" transform="translate(0.666992)"/>
</clipPath>
</defs>
</svg>
