<svg width="34" height="34" viewBox="0 0 34 34" fill="none" xmlns="http://www.w3.org/2000/svg">
<circle cx="17" cy="17" r="17" fill="#FF6002"/>
<g clip-path="url(#clip0_1_540)">
<path d="M16.602 23.65C15.1746 21.8945 12 17.6398 12 15.25C12 12.3505 14.3505 10 17.25 10C20.1484 10 22.5 12.3505 22.5 15.25C22.5 17.6398 19.3008 21.8945 17.898 23.65C17.5617 24.0684 16.9383 24.0684 16.602 23.65ZM17.25 17C18.2152 17 19 16.2152 19 15.25C19 14.2848 18.2152 13.5 17.25 13.5C16.2848 13.5 15.5 14.2848 15.5 15.25C15.5 16.2152 16.2848 17 17.25 17Z" fill="white"/>
</g>
<defs>
<clipPath id="clip0_1_540">
<rect width="10.5" height="14" fill="white" transform="translate(12 10)"/>
</clipPath>
</defs>
</svg>
