<svg width="36" height="48" viewBox="0 0 36 48" fill="none" xmlns="http://www.w3.org/2000/svg">
<path fill-rule="evenodd" clip-rule="evenodd" d="M23.7678 41.0164H12.2801C11.3627 41.0164 10.1952 40.9054 9.42376 40.0621C8.67319 39.2411 8.69404 38.2202 8.71489 37.5323V35.5572C3.46094 31.829 0 25.349 0 19.1797C0 13.3433 2.46018 7.88409 6.73424 4.22245C11.0083 0.560813 16.6166 -0.81507 22.0999 0.472045C27.3122 1.69259 31.8156 5.39862 34.1507 10.3918C38.6749 20.0896 34.3175 30.5863 27.3539 35.5794V37.2438C27.3747 37.8874 27.3956 39.0635 26.5408 39.9956C25.8944 40.6613 24.9771 41.0164 23.7678 41.0164ZM12.2592 37.6876C12.0716 37.6876 11.9256 37.6654 11.8214 37.6654C11.8214 37.6432 11.8214 37.6432 11.8005 37.6432V34.6474C11.8005 34.0704 11.5295 33.5378 11.05 33.2271C7.08867 30.675 3.08566 25.349 3.08566 19.1797C3.08566 14.3419 5.10801 9.83697 8.65235 6.7967C12.1967 3.75643 16.846 2.62465 21.3911 3.68985C25.686 4.68848 29.3971 7.72875 31.3152 11.8342C35.214 20.1561 31.1276 29.2326 24.9562 33.2049C24.4976 33.4934 24.2057 34.0482 24.2057 34.6252V37.4213V37.6432C24.1223 37.6654 23.9763 37.6876 23.7678 37.6876H12.2592Z" fill="#FF6002"/>
<path d="M11.8214 37.6654C11.9256 37.6654 12.0716 37.6876 12.2592 37.6876H23.7678C23.9763 37.6876 24.1223 37.6654 24.2057 37.6432V37.4213V34.6252C24.2057 34.0482 24.4976 33.4934 24.9562 33.2049C31.1276 29.2326 35.214 20.1561 31.3152 11.8342C29.3971 7.72875 25.686 4.68848 21.3911 3.68985C16.846 2.62465 12.1967 3.75643 8.65235 6.7967C5.10801 9.83697 3.08566 14.3419 3.08566 19.1797C3.08566 25.349 7.08867 30.675 11.05 33.2271C11.5295 33.5378 11.8005 34.0704 11.8005 34.6474V37.6432C11.8214 37.6432 11.8214 37.6432 11.8214 37.6654Z" fill="#FF6002"/>
<path d="M25.2903 47.6745C25.1443 47.6745 24.9984 47.6523 24.8524 47.6079C20.3491 46.232 15.6163 46.232 11.1128 47.6079C10.2789 47.852 9.42407 47.3416 9.17388 46.454C8.92369 45.5663 9.42407 44.6564 10.258 44.3901C15.3036 42.8589 20.6618 42.8589 25.7073 44.3901C26.5412 44.6342 27.0207 45.5663 26.7914 46.454C26.6038 47.2085 25.9783 47.6745 25.2903 47.6745Z" fill="#FF6002"/>
<path d="M25.0315 23.6017V12.4435C25.0308 12.2911 24.996 12.1408 24.9298 12.0039C24.8636 11.8669 24.7676 11.7467 24.649 11.6522C24.5321 11.5569 24.3954 11.4892 24.2491 11.4541C24.1028 11.419 23.9506 11.4174 23.8036 11.4494L14.7456 13.4781C14.522 13.529 14.3223 13.6552 14.1795 13.836C14.0368 14.0167 13.9595 14.2412 13.9606 14.4722V22.9322C13.2735 22.6052 12.4998 22.5117 11.7555 22.6655C11.0112 22.8193 10.3364 23.2122 9.83247 23.7853C9.3285 24.3584 9.02248 25.0807 8.96032 25.8439C8.89817 26.6071 9.08322 27.3701 9.48772 28.0183C9.89222 28.6665 10.4944 29.1651 11.2038 29.4392C11.9133 29.7133 12.6918 29.7481 13.4225 29.5385C14.1533 29.3289 14.7969 28.8861 15.2568 28.2766C15.7168 27.6671 15.9682 26.9237 15.9735 26.1579C15.9839 25.9822 15.9839 25.8061 15.9735 25.6304V15.2837L23.0186 13.7114V20.9034C22.3311 20.5763 21.5569 20.4828 20.8122 20.637C20.0676 20.7911 19.3926 21.1846 18.8888 21.7584C18.3849 22.3321 18.0794 23.0552 18.018 23.8189C17.9566 24.5826 18.1427 25.3457 18.5483 25.9938C18.954 26.6418 19.5573 27.1397 20.2676 27.4126C20.9779 27.6856 21.757 27.719 22.4877 27.5076C23.2184 27.2963 23.8614 26.8518 24.3201 26.2408C24.7788 25.6297 25.0284 24.8852 25.0315 24.119C25.041 23.9467 25.041 23.774 25.0315 23.6017Z" fill="white"/>
</svg>
