<svg width="16" height="10" viewBox="0 0 16 10" fill="none" xmlns="http://www.w3.org/2000/svg">
<path d="M8.00597 6.8525C7.54191 6.8525 7.07785 6.73035 6.68201 6.48281L0.819092 2.82438V7.93387C0.819092 8.53088 1.4224 9.01525 2.16663 9.01525H13.8453C14.5895 9.01525 15.1928 8.53111 15.1928 7.93387V2.82438L9.33105 6.48528C8.93521 6.73085 8.46919 6.8525 8.00597 6.8525ZM1.27641 2.19583L7.23366 5.91531C7.68818 6.19917 8.32489 6.19917 8.7794 5.91531L14.7367 2.19583C14.9991 2.01561 15.1928 1.7385 15.1928 1.44563C15.1928 0.848398 14.5893 0.364258 13.8453 0.364258H2.16663C1.4224 0.364258 0.819092 0.848398 0.819092 1.44563C0.819092 1.7385 0.987815 2.01561 1.27641 2.19583Z" fill="white"/>
</svg>
