<svg width="34" height="34" viewBox="0 0 34 34" fill="none" xmlns="http://www.w3.org/2000/svg">
<circle cx="17" cy="17" r="17" fill="#FF6002"/>
<g clip-path="url(#clip0_1_529)">
<path d="M23.9781 20.5819L23.3424 23.3382C23.2531 23.7278 22.9106 24.0005 22.5095 24.0005C15.6109 23.9999 10 18.389 10 11.4902C10 11.0893 10.2726 10.7464 10.6623 10.6575L13.4185 10.0218C13.8199 9.92877 14.2301 10.1371 14.3969 10.5173L15.6689 13.4841C15.8176 13.8335 15.7173 14.2407 15.4234 14.4807L13.9512 15.6628C14.8803 17.5555 16.4192 19.0944 18.3125 20.0241L19.5178 18.553C19.7554 18.2583 20.1656 18.1563 20.515 18.3076L23.4818 19.5794C23.8387 19.7671 24.0711 20.1827 23.9781 20.5819Z" fill="white"/>
</g>
<defs>
<clipPath id="clip0_1_529">
<rect width="14" height="14" fill="white" transform="translate(10 10)"/>
</clipPath>
</defs>
</svg>
