<svg width="15" height="16" viewBox="0 0 15 16" fill="none" xmlns="http://www.w3.org/2000/svg">
<path d="M14.9766 11.8378L14.2954 14.7909C14.1997 15.2084 13.8328 15.5005 13.403 15.5005C6.01172 15.4999 0 9.48821 0 2.09661C0 1.66712 0.292061 1.29973 0.70957 1.20452L3.6627 0.523366C4.09277 0.423698 4.53223 0.64694 4.71094 1.05423L6.07383 4.23294C6.23314 4.60735 6.12568 5.04358 5.81074 5.30081L4.2334 6.56731C5.22891 8.59524 6.87773 10.2441 8.90625 11.2402L10.1977 9.66399C10.4522 9.34817 10.8917 9.23889 11.2661 9.40105L14.4448 10.7636C14.8271 10.9648 15.0762 11.4101 14.9766 11.8378Z" fill="white"/>
</svg>
