<svg width="25" height="20" viewBox="0 0 25 20" fill="none" xmlns="http://www.w3.org/2000/svg">
<path d="M22.2 4.98436C22.2153 5.2031 22.2153 5.42188 22.2153 5.64062C22.2153 12.3125 17.2661 20 8.22032 20C5.4335 20 2.84467 19.1718 0.666992 17.7344C1.06295 17.7812 1.44362 17.7969 1.85481 17.7969C4.15427 17.7969 6.27106 17 7.96143 15.6406C5.79898 15.5938 3.98679 14.1406 3.36241 12.1406C3.667 12.1875 3.97155 12.2187 4.29138 12.2187C4.73299 12.2187 5.17465 12.1562 5.58579 12.0469C3.33199 11.5781 1.64157 9.54687 1.64157 7.09374V7.03126C2.29637 7.40627 3.05786 7.64064 3.86491 7.67185C2.54003 6.76558 1.67204 5.21873 1.67204 3.46871C1.67204 2.53123 1.91565 1.67186 2.34208 0.921852C4.76341 3.98435 8.40304 5.98432 12.4842 6.2031C12.4081 5.8281 12.3624 5.43752 12.3624 5.04688C12.3624 2.2656 14.5553 0 17.2812 0C18.6974 0 19.9766 0.609373 20.8751 1.59375C21.9868 1.37501 23.0528 0.953114 23.997 0.375003C23.6314 1.5469 22.8548 2.53128 21.8345 3.15624C22.8244 3.04692 23.7838 2.7656 24.667 2.37502C23.9971 3.37498 23.1594 4.26557 22.2 4.98436Z" fill="#FF6002"/>
</svg>
