<svg width="14" height="9" viewBox="0 0 14 9" fill="none" xmlns="http://www.w3.org/2000/svg">
<path d="M13.7075 1.4082C13.5464 0.853898 13.072 0.417352 12.4697 0.269203C11.3779 0 7 0 7 0C7 0 2.6221 0 1.53029 0.269203C0.927952 0.417375 0.453555 0.853898 0.292544 1.4082C0 2.41289 0 4.50909 0 4.50909C0 4.50909 0 6.6053 0.292544 7.60999C0.453555 8.16429 0.927952 8.58265 1.53029 8.7308C2.6221 9 7 9 7 9C7 9 11.3779 9 12.4697 8.7308C13.072 8.58265 13.5464 8.16429 13.7075 7.60999C14 6.6053 14 4.50909 14 4.50909C14 4.50909 14 2.41289 13.7075 1.4082ZM5.56817 6.41229V2.6059L9.22725 4.50914L5.56817 6.41229Z" fill="white"/>
</svg>
