<svg width="1290" height="320" viewBox="0 0 1290 320" fill="none" xmlns="http://www.w3.org/2000/svg">
<path d="M-328.393 361.962C-252.515 336.061 -174.016 309.261 -75.4016 309.261C23.2125 309.261 101.679 336.042 177.556 361.962L180.079 359.497C103.604 333.404 24.5402 306.413 -75.4348 306.413C-175.41 306.413 -254.474 333.404 -330.949 359.497L-328.426 361.962H-328.393Z" fill="#F5F5F5"/>
<path d="M688.585 361.963C764.495 336.062 842.962 309.262 941.543 309.262C1040.12 309.262 1118.62 336.043 1194.5 361.944L1197.02 359.478C1120.55 333.385 1041.48 306.395 941.51 306.395C841.535 306.395 762.471 333.385 686.029 359.478L688.551 361.944L688.585 361.963Z" fill="#F5F5F5"/>
<path d="M-386.313 362.001C-366.763 355.846 -347.279 349.194 -328.393 342.752C-252.482 316.85 -174.015 290.051 -75.4012 290.051C23.2129 290.051 101.679 316.831 177.557 342.752C196.41 349.194 215.927 355.846 235.477 362.001L237.867 359.478C218.417 353.342 198.933 346.689 180.079 340.267C103.605 314.155 24.5406 287.164 -75.4344 287.164C-175.409 287.164 -254.473 314.155 -330.948 340.267C-349.768 346.689 -369.252 353.342 -388.703 359.478L-386.313 362.001Z" fill="#F5F5F5"/>
<path d="M630.664 362.001C650.214 355.846 669.731 349.194 688.584 342.733C764.461 316.831 842.961 290.031 941.542 290.031C1040.12 290.031 1118.62 316.812 1194.53 342.733C1213.42 349.174 1232.9 355.827 1252.45 362.001L1254.84 359.478C1235.36 353.342 1215.91 346.689 1197.06 340.267C1120.58 314.155 1041.52 287.164 941.542 287.164C841.567 287.164 762.503 314.155 686.028 340.248C667.208 346.67 647.724 353.322 628.241 359.459L630.63 361.982L630.664 362.001Z" fill="#F5F5F5"/>
<path d="M-456.747 362.077C-411.639 351.927 -369.319 337.476 -328.393 323.522C-252.482 297.62 -174.016 270.821 -75.4017 270.821C23.2124 270.821 101.679 297.601 177.556 323.503C218.482 337.476 260.836 351.927 305.911 362.077L307.736 359.401C263.026 349.347 220.872 334.953 180.079 321.037C103.604 294.925 24.5401 267.953 -75.435 267.953C-175.41 267.953 -254.474 294.944 -330.949 321.056C-371.709 334.972 -413.863 349.347 -458.573 359.42L-456.747 362.097V362.077Z" fill="#F5F5F5"/>
<path d="M560.197 362.078C605.305 351.927 647.625 337.476 688.551 323.503C764.429 297.601 842.928 270.802 941.542 270.802C1040.16 270.802 1118.62 297.582 1194.5 323.484C1235.16 337.361 1277.22 351.717 1321.99 361.848L1323.82 359.172C1279.44 349.117 1237.55 334.838 1197.06 320.999C1120.58 294.906 1041.52 267.915 941.542 267.915C841.567 267.915 762.503 294.906 686.028 320.999C645.268 334.915 603.114 349.309 558.404 359.363L560.23 362.039L560.197 362.078Z" fill="#F5F5F5"/>
<path d="M433.07 357.356C533.045 357.356 612.109 330.365 688.584 304.272C764.462 278.371 842.961 251.571 941.542 251.571C1040.12 251.571 1118.62 278.352 1194.5 304.253C1235.16 318.131 1277.22 332.487 1321.99 342.618L1323.82 339.941C1279.44 329.887 1237.55 315.608 1197.06 301.768C1120.58 275.676 1041.52 248.685 941.542 248.685C841.567 248.685 762.503 275.676 686.028 301.768C610.151 327.669 531.651 354.469 433.07 354.469C334.489 354.469 255.99 327.689 180.112 301.768C103.637 275.676 24.5735 248.685 -75.4016 248.685V251.552C23.2125 251.552 101.679 278.333 177.556 304.253C254.031 330.346 333.095 357.336 433.07 357.336V357.356Z" fill="#F5F5F5"/>
<path d="M433.07 338.126C533.045 338.126 612.109 311.135 688.584 285.023C764.462 259.122 842.961 232.322 941.542 232.322C1040.12 232.322 1118.62 259.103 1194.5 285.023C1235.16 298.901 1277.22 313.257 1321.99 323.388L1323.82 320.712C1279.44 310.657 1237.55 296.359 1197.06 282.538C1120.58 256.427 1041.52 229.436 941.542 229.436C841.567 229.436 762.503 256.427 686.028 282.538C610.151 308.44 531.651 335.239 433.07 335.239C334.489 335.239 255.99 308.459 180.112 282.538C103.637 256.427 24.5735 229.436 -75.4016 229.436V232.303C23.2125 232.303 101.679 259.084 177.556 285.004C254.031 311.116 333.095 338.107 433.07 338.107V338.126Z" fill="#F5F5F5"/>
<path d="M433.07 318.896C533.045 318.896 612.109 291.905 688.584 265.812C764.462 239.911 842.961 213.111 941.542 213.111C1040.12 213.111 1118.62 239.892 1194.5 265.793C1235.16 279.671 1277.22 294.027 1321.99 304.158L1323.82 301.482C1279.44 291.427 1237.55 277.148 1197.06 263.308C1120.58 237.216 1041.52 210.225 941.542 210.225C841.567 210.225 762.503 237.216 686.028 263.308C610.151 289.209 531.651 316.009 433.07 316.009C334.489 316.009 255.99 289.229 180.112 263.308C103.637 237.216 24.5735 210.225 -75.4016 210.225V213.092C23.2125 213.092 101.679 239.873 177.556 265.793C254.031 291.886 333.095 318.877 433.07 318.877V318.896Z" fill="#F5F5F5"/>
<path d="M433.07 299.666C533.045 299.666 612.109 272.675 688.584 246.583C764.462 220.681 842.961 193.882 941.542 193.882C1040.12 193.882 1118.62 220.662 1194.5 246.564C1235.16 260.441 1277.22 274.797 1321.99 284.928L1323.82 282.252C1279.44 272.197 1237.55 257.918 1197.06 244.079C1120.58 217.986 1041.52 190.995 941.542 190.995C841.567 190.995 762.503 217.986 686.028 244.079C610.151 269.98 531.651 296.78 433.07 296.78C334.489 296.78 255.99 269.999 180.112 244.079C103.637 217.986 24.5735 190.995 -75.4016 190.995V193.862C23.2125 193.862 101.679 220.643 177.556 246.564C254.031 272.656 333.095 299.647 433.07 299.647V299.666Z" fill="#F5F5F5"/>
<path d="M433.07 280.436C533.045 280.436 612.109 253.445 688.584 227.353C764.462 201.451 842.961 174.671 941.542 174.671C1040.12 174.671 1118.62 201.451 1194.5 227.353C1235.16 241.23 1277.22 255.586 1321.99 265.717L1323.82 263.041C1279.44 252.986 1237.55 238.707 1197.06 224.868C1120.58 198.775 1041.52 171.784 941.542 171.784C841.567 171.784 762.503 198.775 686.028 224.868C610.151 250.769 531.651 277.55 433.07 277.55C334.489 277.55 255.99 250.769 180.112 224.868C103.637 198.756 24.5735 171.784 -75.4016 171.784V174.651C23.2125 174.651 101.679 201.432 177.556 227.334C254.031 253.426 333.095 280.417 433.07 280.417V280.436Z" fill="#F5F5F5"/>
<path d="M433.07 261.187C533.045 261.187 612.109 234.196 688.584 208.103C764.462 182.202 842.961 155.402 941.542 155.402C1040.12 155.402 1118.62 182.183 1194.5 208.084C1235.16 221.962 1277.22 236.318 1321.99 246.449L1323.82 243.773C1279.44 233.718 1237.55 219.439 1197.06 205.599C1120.58 179.507 1041.52 152.516 941.542 152.516C841.567 152.516 762.503 179.507 686.028 205.599C610.151 231.5 531.651 258.3 433.07 258.3C334.489 258.3 255.99 231.52 180.112 205.599C103.637 179.507 24.5735 152.516 -75.4016 152.516V155.383C23.2125 155.383 101.679 182.164 177.556 208.084C254.031 234.177 333.095 261.168 433.07 261.168V261.187Z" fill="#F5F5F5"/>
<path d="M433.07 241.956C533.045 241.956 612.109 214.965 688.584 188.873C764.462 162.972 842.961 136.191 941.542 136.191C1040.12 136.191 1118.62 162.972 1194.5 188.873C1235.16 202.751 1277.22 217.106 1321.99 227.238L1323.82 224.561C1279.44 214.507 1237.55 200.227 1197.06 186.388C1120.58 160.295 1041.52 133.304 941.542 133.304C841.567 133.304 762.503 160.295 686.028 186.388C610.151 212.289 531.651 239.07 433.07 239.07C334.489 239.07 255.99 212.289 180.112 186.388C103.637 160.276 24.5735 133.304 -75.4016 133.304V136.172C23.2125 136.172 101.679 162.952 177.556 188.854C254.031 214.946 333.095 241.937 433.07 241.937V241.956Z" fill="#F5F5F5"/>
<path d="M433.07 222.726C533.045 222.726 612.109 195.735 688.584 169.643C764.462 143.741 842.961 116.961 941.542 116.961C1040.12 116.961 1118.62 143.741 1194.5 169.643C1235.16 183.52 1277.22 197.876 1321.99 208.007L1323.82 205.331C1279.44 195.276 1237.55 180.997 1197.06 167.158C1120.58 141.065 1041.52 114.074 941.542 114.074C841.567 114.074 762.503 141.065 686.028 167.158C610.151 193.059 531.651 219.859 433.07 219.859C334.489 219.859 255.99 193.078 180.112 167.158C103.637 141.065 24.5735 114.074 -75.4016 114.074V116.942C23.2125 116.942 101.679 143.722 177.556 169.624C254.031 195.716 333.095 222.707 433.07 222.707V222.726Z" fill="#F5F5F5"/>
<path d="M433.07 203.497C533.045 203.497 612.109 176.506 688.584 150.413C764.462 124.512 842.961 97.7311 941.542 97.7311C1040.12 97.7311 1118.62 124.512 1194.5 150.413C1235.16 164.291 1277.22 178.647 1321.99 188.778L1323.82 186.102C1279.44 176.047 1237.55 161.768 1197.06 147.928C1120.58 121.836 1041.52 94.8447 941.542 94.8447C841.567 94.8447 762.503 121.836 686.028 147.928C610.151 173.83 531.651 200.629 433.07 200.629C334.489 200.629 255.99 173.849 180.112 147.928C103.637 121.836 24.5735 94.8447 -75.4016 94.8447V97.712C23.2125 97.712 101.679 124.493 177.556 150.394C254.031 176.487 333.095 203.478 433.07 203.478V203.497Z" fill="#F5F5F5"/>
</svg>
