<svg width="24" height="20" viewBox="0 0 24 20" fill="none" xmlns="http://www.w3.org/2000/svg">
<g clip-path="url(#clip0_1_523)">
<path d="M22.8601 4.50346C22.5994 3.51804 21.8313 2.74196 20.8561 2.47858C19.0885 2 12.0004 2 12.0004 2C12.0004 2 4.91236 2 3.14467 2.47858C2.16945 2.742 1.40138 3.51804 1.1407 4.50346C0.667053 6.28958 0.667053 10.0162 0.667053 10.0162C0.667053 10.0162 0.667053 13.7428 1.1407 15.5289C1.40138 16.5143 2.16945 17.258 3.14467 17.5214C4.91236 18 12.0004 18 12.0004 18C12.0004 18 19.0884 18 20.8561 17.5214C21.8313 17.258 22.5994 16.5143 22.8601 15.5289C23.3337 13.7428 23.3337 10.0162 23.3337 10.0162C23.3337 10.0162 23.3337 6.28958 22.8601 4.50346ZM9.68219 13.3996V6.63271L15.6064 10.0163L9.68219 13.3996Z" fill="#FF6002"/>
</g>
<defs>
<clipPath id="clip0_1_523">
<rect width="22.6667" height="20" fill="white" transform="translate(0.666992)"/>
</clipPath>
</defs>
</svg>
